<?xml version="1.0" encoding="UTF-8" standalone="no"?>
<svg width="446px" height="446px" viewBox="0 0 446 446" version="1.1" xmlns="http://www.w3.org/2000/svg" xmlns:xlink="http://www.w3.org/1999/xlink">
    <!-- Generator: Sketch 41.1 (35376) - http://www.bohemiancoding.com/sketch -->
    <title>logo3</title>
    <desc>Created with Sketch.</desc>
    <defs>
        <path d="M33.6796877,59.6875007 C64.3125009,-28.2968737 417.067711,19.9789574 417.067711,19.9789574 C421.448593,20.5428636 425.703392,24.5101516 426.527187,28.8533646 C426.527187,28.8533646 479.561013,279.165549 381.257813,377.46875 C282.954612,475.771951 27.1328125,423.828122 14.921875,411.070309 C2.7109375,398.312497 3.04687436,147.671875 33.6796877,59.6875007 Z" id="path-1"></path>
        <mask id="mask-2" maskContentUnits="userSpaceOnUse" maskUnits="objectBoundingBox" x="0" y="0" width="433.402009" height="429.425955" fill="white">
            <use xlink:href="#path-1"></use>
        </mask>
    </defs>
    <g id="Welcome" stroke="none" stroke-width="1" fill="none" fill-rule="evenodd">
        <g id="Artboard-3" transform="translate(-1818.000000, -140.000000)">
            <g id="logo3" transform="translate(1818.000000, 140.000000)">
                <path d="M0,8.00199056 C0,3.58261321 3.57445031,0 7.99834982,0 L73.59375,0 L438.006131,0 C442.421023,0 446,3.59005174 446,8.00199056 L446,437.998009 C446,442.417387 442.409948,446 437.998009,446 L8.00199056,446 C3.58261321,446 0,442.409948 0,437.998009 L0,8.00199056 Z" id="Rectangle-32" fill="#FF2D4B"></path>
                <use id="Rectangle-32" stroke="#FF2D4B" mask="url(#mask-2)" stroke-width="2" fill="#FFFFFF" xlink:href="#path-1"></use>
                <path d="M212.092723,187.397183 C195.089903,182.070139 186.735065,161.09043 186.735065,161.09043 L186.735065,145.353303 L195.089903,43.2467376 C195.089903,43.2467376 197.403569,39.7350647 199.398741,39.7350647 C201.393914,39.7350647 203.444742,43.2467376 203.444742,43.2467376 L203.444742,133.340766 C203.444742,133.340766 206.317106,135.444719 207.827885,135.444719 C209.199767,135.444719 212.092723,133.340766 212.092723,133.340766 L212.092723,43.2467376 C212.092723,43.2467376 214.303686,39.7350647 216.275679,39.7350647 C218.247671,39.7350647 220.215612,43.2467376 220.215612,43.2467376 L220.215612,133.340766 C220.215612,133.340766 223.157134,135.444719 224.627895,135.444719 C225.921683,135.444719 228.509258,133.340766 228.509258,133.340766 L228.509258,43.2467376 C228.509258,43.2467376 231.488176,39.7350647 232.874044,39.7350647 C234.365396,39.7350647 237.140921,43.2467376 237.140921,43.2467376 L237.140921,133.340766 C237.140921,133.340766 239.484891,135.444719 240.656877,135.444719 C241.779714,135.444719 244.025387,133.340766 244.025387,133.340766 L244.025387,43.2467376 C244.025387,43.2467376 246.963509,39.7350647 248.354914,39.7350647 C249.708826,39.7350647 252.261337,43.2467376 252.261337,43.2467376 L260.735065,145.09874 L260.735065,160.969601 C260.735065,160.969601 252.261337,181.390914 237.140921,187.397183 C222.020505,193.403451 240.656877,384.402791 240.656877,384.402791 C240.656877,384.402791 235.21128,397.735065 224.627895,397.735065 C214.04451,397.735065 207.827885,384.402791 207.827885,384.402791 C207.827885,384.402791 229.095542,192.724227 212.092723,187.397183 Z" id="Rectangle-10-Copy" fill="#FF2D4B" transform="translate(223.735065, 218.735065) rotate(45.000000) translate(-223.735065, -218.735065) "></path>
                <path d="M212.092723,188.397183 C195.089903,183.070139 186.735065,162.09043 186.735065,162.09043 L186.735065,146.353303 L195.089903,44.2467376 C195.089903,44.2467376 197.403569,40.7350647 199.398741,40.7350647 C201.393914,40.7350647 203.444742,44.2467376 203.444742,44.2467376 L203.444742,134.340766 C203.444742,134.340766 206.317106,136.444719 207.827885,136.444719 C209.199767,136.444719 212.092723,134.340766 212.092723,134.340766 L212.092723,44.2467376 C212.092723,44.2467376 214.303686,40.7350647 216.275679,40.7350647 C218.247671,40.7350647 220.215612,44.2467376 220.215612,44.2467376 L220.215612,134.340766 C220.215612,134.340766 223.157134,136.444719 224.627895,136.444719 C225.921683,136.444719 228.509258,134.340766 228.509258,134.340766 L228.509258,44.2467376 C228.509258,44.2467376 231.488176,40.7350647 232.874044,40.7350647 C234.365396,40.7350647 237.140921,44.2467376 237.140921,44.2467376 L237.140921,134.340766 C237.140921,134.340766 239.484891,136.444719 240.656877,136.444719 C241.779714,136.444719 244.025387,134.340766 244.025387,134.340766 L244.025387,44.2467376 C244.025387,44.2467376 246.963509,40.7350647 248.354914,40.7350647 C249.708826,40.7350647 252.261337,44.2467376 252.261337,44.2467376 L260.735065,146.09874 L260.735065,161.969601 C260.735065,161.969601 252.261337,182.390914 237.140921,188.397183 C222.020505,194.403451 240.656877,385.402791 240.656877,385.402791 C240.656877,385.402791 235.21128,398.735065 224.627895,398.735065 C214.04451,398.735065 207.827885,385.402791 207.827885,385.402791 C207.827885,385.402791 229.095542,193.724227 212.092723,188.397183 Z" id="Rectangle-10-Copy" fill="#FF2D4B" transform="translate(223.735065, 219.735065) rotate(-45.000000) translate(-223.735065, -219.735065) "></path>
            </g>
        </g>
    </g>
</svg>